<!-- Uploaded to: SVG Repo, www.svgrepo.com, Transformed by: SVG Repo Mixer Tools -->
<svg fill="#000000" width="800px" height="800px" viewBox="-1.27 0 30 30" id="_14_-_Document" data-name="14 - Document" xmlns="http://www.w3.org/2000/svg">
  <path id="Path_238" data-name="Path 238" d="M23.172,1.412A1,1,0,0,0,22.364,1H5.273a3,3,0,0,0-3,3V28a3,3,0,0,0,3,3H26.727a3,3,0,0,0,3-3V10.75a1,1,0,0,0-.191-.588l-6.364-8.75ZM21.854,3l5.873,8.075V28a1,1,0,0,1-1,1H5.273a1,1,0,0,1-1-1V4a1,1,0,0,1,1-1Z" transform="translate(-2.273 -1)" fill-rule="evenodd"/>
  <path id="Path_239" data-name="Path 239" d="M7.091,9.364H16a1,1,0,0,0,0-2H7.091a1,1,0,0,0,0,2Z" transform="translate(-2.273 -1)" fill-rule="evenodd"/>
  <path id="Path_240" data-name="Path 240" d="M28.727,11.182H23.364V2a1,1,0,0,0-2,0V12.182a1,1,0,0,0,1,1h6.363a1,1,0,0,0,0-2Z" transform="translate(-2.273 -1)" fill-rule="evenodd"/>
  <path id="Path_241" data-name="Path 241" d="M7.091,15.727H16a1,1,0,0,0,0-2H7.091a1,1,0,0,0,0,2Z" transform="translate(-2.273 -1)" fill-rule="evenodd"/>
  <path id="Path_242" data-name="Path 242" d="M7.091,21.455H19.818a1,1,0,0,0,0-2H7.091a1,1,0,0,0,0,2Z" transform="translate(-2.273 -1)" fill-rule="evenodd"/>
</svg>